<mxfile host="app.diagrams.net" modified="2021-06-03T08:28:15.051Z" agent="5.0 (Macintosh; Intel Mac OS X 10_15_7) AppleWebKit/605.1.15 (KHTML, like Gecko) Version/14.1.1 Safari/605.1.15" etag="WX8DPlsv0fPHmXqGSGi_" version="14.7.3" type="github">
  <diagram name="Page-1" id="0783ab3e-0a74-02c8-0abd-f7b4e66b4bec">
    <mxGraphModel dx="946" dy="645" grid="1" gridSize="10" guides="1" tooltips="1" connect="1" arrows="1" fold="1" page="1" pageScale="1" pageWidth="850" pageHeight="1100" background="none" math="0" shadow="0">
      <root>
        <mxCell id="0" />
        <mxCell id="1" parent="0" />
        <mxCell id="xLJIOm62wg1Ltep4KZY7-4" style="edgeStyle=orthogonalEdgeStyle;rounded=0;orthogonalLoop=1;jettySize=auto;html=1;exitX=0.5;exitY=1;exitDx=0;exitDy=0;entryX=0.5;entryY=0;entryDx=0;entryDy=0;" edge="1" parent="1" source="60571a20871a0731-4" target="xLJIOm62wg1Ltep4KZY7-3">
          <mxGeometry relative="1" as="geometry" />
        </mxCell>
        <mxCell id="60571a20871a0731-4" value="" style="ellipse;whiteSpace=wrap;html=1;rounded=0;shadow=0;comic=0;labelBackgroundColor=none;strokeWidth=1;fillColor=#000000;fontFamily=Verdana;fontSize=12;align=center;" parent="1" vertex="1">
          <mxGeometry x="310" y="100" width="40" height="40" as="geometry" />
        </mxCell>
        <mxCell id="xLJIOm62wg1Ltep4KZY7-2" value="" style="ellipse;whiteSpace=wrap;html=1;rounded=0;shadow=0;comic=0;labelBackgroundColor=none;strokeWidth=1;fillColor=#000000;fontFamily=Verdana;fontSize=12;align=center;" vertex="1" parent="1">
          <mxGeometry x="120" y="760" width="40" height="40" as="geometry" />
        </mxCell>
        <mxCell id="xLJIOm62wg1Ltep4KZY7-6" style="edgeStyle=orthogonalEdgeStyle;rounded=0;orthogonalLoop=1;jettySize=auto;html=1;exitX=0.5;exitY=1;exitDx=0;exitDy=0;entryX=0.5;entryY=0;entryDx=0;entryDy=0;" edge="1" parent="1" source="xLJIOm62wg1Ltep4KZY7-3" target="xLJIOm62wg1Ltep4KZY7-5">
          <mxGeometry relative="1" as="geometry" />
        </mxCell>
        <mxCell id="xLJIOm62wg1Ltep4KZY7-3" value="İstek Listesini&lt;br&gt;Oluştur" style="rounded=1;whiteSpace=wrap;html=1;" vertex="1" parent="1">
          <mxGeometry x="270" y="180" width="120" height="60" as="geometry" />
        </mxCell>
        <mxCell id="xLJIOm62wg1Ltep4KZY7-8" style="edgeStyle=orthogonalEdgeStyle;rounded=0;orthogonalLoop=1;jettySize=auto;html=1;exitX=0.5;exitY=1;exitDx=0;exitDy=0;" edge="1" parent="1" source="xLJIOm62wg1Ltep4KZY7-5" target="xLJIOm62wg1Ltep4KZY7-7">
          <mxGeometry relative="1" as="geometry" />
        </mxCell>
        <mxCell id="xLJIOm62wg1Ltep4KZY7-5" value="İstek Listesini&lt;br&gt;Görüntüle" style="rounded=1;whiteSpace=wrap;html=1;" vertex="1" parent="1">
          <mxGeometry x="270" y="290" width="120" height="60" as="geometry" />
        </mxCell>
        <mxCell id="xLJIOm62wg1Ltep4KZY7-10" style="edgeStyle=orthogonalEdgeStyle;rounded=0;orthogonalLoop=1;jettySize=auto;html=1;exitX=1;exitY=0.5;exitDx=0;exitDy=0;entryX=0.5;entryY=0;entryDx=0;entryDy=0;" edge="1" parent="1" source="xLJIOm62wg1Ltep4KZY7-7" target="xLJIOm62wg1Ltep4KZY7-9">
          <mxGeometry relative="1" as="geometry" />
        </mxCell>
        <mxCell id="xLJIOm62wg1Ltep4KZY7-11" value="Evet" style="edgeLabel;html=1;align=center;verticalAlign=middle;resizable=0;points=[];" vertex="1" connectable="0" parent="xLJIOm62wg1Ltep4KZY7-10">
          <mxGeometry x="-0.0936" relative="1" as="geometry">
            <mxPoint x="-47" y="50" as="offset" />
          </mxGeometry>
        </mxCell>
        <mxCell id="xLJIOm62wg1Ltep4KZY7-19" value="Hayır" style="edgeStyle=orthogonalEdgeStyle;curved=1;orthogonalLoop=1;jettySize=auto;html=1;exitX=0.5;exitY=1;exitDx=0;exitDy=0;entryX=0.25;entryY=0;entryDx=0;entryDy=0;" edge="1" parent="1" source="xLJIOm62wg1Ltep4KZY7-7" target="xLJIOm62wg1Ltep4KZY7-18">
          <mxGeometry x="-0.3758" y="-20" relative="1" as="geometry">
            <mxPoint as="offset" />
          </mxGeometry>
        </mxCell>
        <mxCell id="xLJIOm62wg1Ltep4KZY7-7" value="İşlem" style="rhombus;whiteSpace=wrap;html=1;" vertex="1" parent="1">
          <mxGeometry x="290" y="410" width="80" height="80" as="geometry" />
        </mxCell>
        <mxCell id="xLJIOm62wg1Ltep4KZY7-15" style="edgeStyle=orthogonalEdgeStyle;orthogonalLoop=1;jettySize=auto;html=1;exitX=0.25;exitY=1;exitDx=0;exitDy=0;entryX=0.5;entryY=0;entryDx=0;entryDy=0;curved=1;" edge="1" parent="1" source="xLJIOm62wg1Ltep4KZY7-9" target="xLJIOm62wg1Ltep4KZY7-12">
          <mxGeometry relative="1" as="geometry" />
        </mxCell>
        <mxCell id="xLJIOm62wg1Ltep4KZY7-16" style="edgeStyle=orthogonalEdgeStyle;curved=1;orthogonalLoop=1;jettySize=auto;html=1;exitX=0.5;exitY=1;exitDx=0;exitDy=0;entryX=0.5;entryY=0;entryDx=0;entryDy=0;" edge="1" parent="1" source="xLJIOm62wg1Ltep4KZY7-9" target="xLJIOm62wg1Ltep4KZY7-13">
          <mxGeometry relative="1" as="geometry" />
        </mxCell>
        <mxCell id="xLJIOm62wg1Ltep4KZY7-17" style="edgeStyle=orthogonalEdgeStyle;curved=1;orthogonalLoop=1;jettySize=auto;html=1;exitX=0.75;exitY=1;exitDx=0;exitDy=0;entryX=0.5;entryY=0;entryDx=0;entryDy=0;" edge="1" parent="1" source="xLJIOm62wg1Ltep4KZY7-9" target="xLJIOm62wg1Ltep4KZY7-14">
          <mxGeometry relative="1" as="geometry" />
        </mxCell>
        <mxCell id="xLJIOm62wg1Ltep4KZY7-9" value="" style="whiteSpace=wrap;html=1;rounded=0;shadow=0;comic=0;labelBackgroundColor=none;strokeWidth=1;fontFamily=Verdana;fontSize=12;align=center;rotation=0;fillColor=#000000;" vertex="1" parent="1">
          <mxGeometry x="550" y="430" width="147" height="10" as="geometry" />
        </mxCell>
        <mxCell id="xLJIOm62wg1Ltep4KZY7-22" style="edgeStyle=orthogonalEdgeStyle;curved=1;orthogonalLoop=1;jettySize=auto;html=1;exitX=0.5;exitY=1;exitDx=0;exitDy=0;entryX=0.374;entryY=-0.3;entryDx=0;entryDy=0;entryPerimeter=0;" edge="1" parent="1" source="xLJIOm62wg1Ltep4KZY7-12" target="xLJIOm62wg1Ltep4KZY7-18">
          <mxGeometry relative="1" as="geometry">
            <Array as="points">
              <mxPoint x="500" y="560" />
              <mxPoint x="348" y="560" />
            </Array>
          </mxGeometry>
        </mxCell>
        <mxCell id="xLJIOm62wg1Ltep4KZY7-12" value="İstek Listesini&lt;br&gt;Düzenle" style="rounded=1;whiteSpace=wrap;html=1;" vertex="1" parent="1">
          <mxGeometry x="440" y="490" width="120" height="40" as="geometry" />
        </mxCell>
        <mxCell id="xLJIOm62wg1Ltep4KZY7-25" style="edgeStyle=orthogonalEdgeStyle;curved=1;orthogonalLoop=1;jettySize=auto;html=1;exitX=0;exitY=0.5;exitDx=0;exitDy=0;entryX=0.551;entryY=0.1;entryDx=0;entryDy=0;entryPerimeter=0;strokeColor=#000000;" edge="1" parent="1" source="xLJIOm62wg1Ltep4KZY7-13" target="xLJIOm62wg1Ltep4KZY7-18">
          <mxGeometry relative="1" as="geometry" />
        </mxCell>
        <mxCell id="xLJIOm62wg1Ltep4KZY7-13" value="İstek Listesinden&lt;br&gt;Kitap Çıkar" style="rounded=1;whiteSpace=wrap;html=1;" vertex="1" parent="1">
          <mxGeometry x="563.5" y="570" width="120" height="40" as="geometry" />
        </mxCell>
        <mxCell id="xLJIOm62wg1Ltep4KZY7-26" style="edgeStyle=orthogonalEdgeStyle;curved=1;orthogonalLoop=1;jettySize=auto;html=1;exitX=0.5;exitY=1;exitDx=0;exitDy=0;entryX=0.932;entryY=-0.2;entryDx=0;entryDy=0;entryPerimeter=0;strokeColor=#000000;" edge="1" parent="1" source="xLJIOm62wg1Ltep4KZY7-14" target="xLJIOm62wg1Ltep4KZY7-18">
          <mxGeometry relative="1" as="geometry">
            <Array as="points">
              <mxPoint x="760" y="530" />
              <mxPoint x="760" y="620" />
              <mxPoint x="430" y="620" />
            </Array>
          </mxGeometry>
        </mxCell>
        <mxCell id="xLJIOm62wg1Ltep4KZY7-14" value="İstek Listesine&lt;br&gt;Kitap Ekle" style="rounded=1;whiteSpace=wrap;html=1;" vertex="1" parent="1">
          <mxGeometry x="690" y="490" width="120" height="40" as="geometry" />
        </mxCell>
        <mxCell id="xLJIOm62wg1Ltep4KZY7-21" style="edgeStyle=orthogonalEdgeStyle;curved=1;orthogonalLoop=1;jettySize=auto;html=1;exitX=0.5;exitY=1;exitDx=0;exitDy=0;entryX=0.5;entryY=0;entryDx=0;entryDy=0;" edge="1" parent="1" source="xLJIOm62wg1Ltep4KZY7-18" target="xLJIOm62wg1Ltep4KZY7-20">
          <mxGeometry relative="1" as="geometry" />
        </mxCell>
        <mxCell id="xLJIOm62wg1Ltep4KZY7-18" value="" style="whiteSpace=wrap;html=1;rounded=0;shadow=0;comic=0;labelBackgroundColor=none;strokeWidth=1;fontFamily=Verdana;fontSize=12;align=center;rotation=0;fillColor=#000000;" vertex="1" parent="1">
          <mxGeometry x="293" y="650" width="147" height="10" as="geometry" />
        </mxCell>
        <mxCell id="xLJIOm62wg1Ltep4KZY7-27" style="edgeStyle=orthogonalEdgeStyle;curved=1;orthogonalLoop=1;jettySize=auto;html=1;exitX=0;exitY=0.5;exitDx=0;exitDy=0;entryX=1;entryY=0.5;entryDx=0;entryDy=0;strokeColor=#000000;" edge="1" parent="1" source="xLJIOm62wg1Ltep4KZY7-20" target="xLJIOm62wg1Ltep4KZY7-2">
          <mxGeometry relative="1" as="geometry" />
        </mxCell>
        <mxCell id="xLJIOm62wg1Ltep4KZY7-20" value="İstek Listesini&lt;br&gt;Görüntüle" style="rounded=1;whiteSpace=wrap;html=1;" vertex="1" parent="1">
          <mxGeometry x="306.5" y="750" width="120" height="60" as="geometry" />
        </mxCell>
      </root>
    </mxGraphModel>
  </diagram>
</mxfile>
